<svg xmlns="http://www.w3.org/2000/svg" width="14" height="14.999" viewBox="0 0 14 14.999">
  <path id="attach2" d="M30.751,9.475,25.075,3.989a1.982,1.982,0,0,0-1.456-.595,1.881,1.881,0,0,0-1.358.538A1.756,1.756,0,0,0,21.7,5.245a1.854,1.854,0,0,0,.615,1.407l4.005,3.871a.3.3,0,0,0,.215.094q.156,0,.459-.293t.3-.444a.285.285,0,0,0-.1-.208L23.2,5.8a.791.791,0,0,1-.244-.557.6.6,0,0,1,.186-.453.647.647,0,0,1,.469-.179.854.854,0,0,1,.586.227l5.676,5.486a1.851,1.851,0,0,1,.616,1.369,2.723,2.723,0,0,1-.733,1.384,1.43,1.43,0,0,1-1.036.4,1.979,1.979,0,0,1-1.416-.6L19.721,5.542a2.3,2.3,0,0,1-.742-1.709,3.638,3.638,0,0,1,1.036-2.092,3.015,3.015,0,0,1,1.933-.9,3.159,3.159,0,0,1,2.062.639l5.92,5.732a.313.313,0,0,0,.225.094q.156,0,.454-.288t.3-.439a.285.285,0,0,0-.1-.208L24.9.653a4.391,4.391,0,0,0-2.961-.979A4.24,4.24,0,0,0,19.126.91a4.673,4.673,0,0,0-1.4,2.932,3.473,3.473,0,0,0,1.1,2.559l7.591,7.328a3.2,3.2,0,0,0,2.3.944,2.647,2.647,0,0,0,1.915-.746,3.741,3.741,0,0,0,1.095-2.233A2.949,2.949,0,0,0,30.751,9.475Z" transform="translate(-17.728 0.326)" fill="#727272"/>
</svg>
