<svg xmlns="http://www.w3.org/2000/svg" width="18" height="15" viewBox="0 0 18 15">
  <path id="awesome-user" d="M6.3,7.5A3.677,3.677,0,0,0,9.9,3.75,3.677,3.677,0,0,0,6.3,0,3.677,3.677,0,0,0,2.7,3.75,3.677,3.677,0,0,0,6.3,7.5Zm2.52.938H8.35a4.718,4.718,0,0,1-4.1,0H3.78A3.862,3.862,0,0,0,0,12.375v1.219A1.379,1.379,0,0,0,1.35,15h9.9a1.379,1.379,0,0,0,1.35-1.406V12.375A3.862,3.862,0,0,0,8.82,8.438ZM17.9,4.676l-.782-.823a.324.324,0,0,0-.472,0L13.7,6.9l-1.28-1.342a.324.324,0,0,0-.473,0l-.79.817a.358.358,0,0,0,0,.492l2.3,2.411a.324.324,0,0,0,.473,0L17.9,5.168a.361.361,0,0,0,0-.492Z" fill="#fff"/>
</svg>
