<svg id="c-edit" xmlns="http://www.w3.org/2000/svg" width="21" height="22" viewBox="0 0 21 22">
  <path id="Path_461" data-name="Path 461" d="M32.667,21.745s-4.23,2.308-4.195-3.133,0-14.112,0-14.112A2.555,2.555,0,0,1,31.1,1.738H41.364s1.9-.133,1.9,2.609V15.09s6.293-3.519,3.638,1.778a8.381,8.381,0,0,1-7.8,4.876Z" transform="translate(-27.57 -0.827)" fill="#dbf7e8"/>
  <path id="Path_455" data-name="Path 455" d="M115.459,200.977c0-.539-.328-.977-.732-.977h-7.537c-.4,0-.732.437-.732.977s.328.977.732.977h7.537C115.131,201.953,115.459,201.516,115.459,200.977Z" transform="translate(-102.639 -190.921)" fill="#67cf94"/>
  <path id="Path_456" data-name="Path 456" d="M107.186,280c-.4,0-.727.437-.727.977s.325.977.727.977h4.546c.4,0,.727-.437.727-.977s-.325-.977-.727-.977Z" transform="translate(-102.616 -266.478)" fill="#67cf94"/>
  <path id="Path_457" data-name="Path 457" d="M33.545,20.038H29.809a1.662,1.662,0,0,1-1.62-1.7V3.4a1.662,1.662,0,0,1,1.62-1.7h9.957a1.662,1.662,0,0,1,1.62,1.7V9.705a.811.811,0,1,0,1.62,0V3.4A3.324,3.324,0,0,0,39.766,0H29.809A3.324,3.324,0,0,0,26.57,3.4V18.34a3.324,3.324,0,0,0,3.239,3.4h3.736a.85.85,0,0,0,0-1.7Z" transform="translate(-26.57 0)" fill="#67cf94"/>
  <path id="Path_458" data-name="Path 458" d="M253.493,272.779a2.762,2.762,0,0,0-3.794,0l-4.91,4.713a.855.855,0,0,0-.224.359l-1.069,3.386a.837.837,0,0,0,.216.851.912.912,0,0,0,.64.26.928.928,0,0,0,.239-.031l3.61-.962a.9.9,0,0,0,.393-.22l4.9-4.7A2.515,2.515,0,0,0,253.493,272.779Zm-6,6.977-1.816.484.531-1.683,3.313-3.18,1.265,1.217Zm4.733-4.544-.173.166-1.265-1.217.173-.166a.921.921,0,0,1,1.265,0A.838.838,0,0,1,252.229,275.212Z" transform="translate(-233.277 -260.347)" fill="#67cf94"/>
  <path id="Path_459" data-name="Path 459" d="M114.727,120h-7.537c-.4,0-.732.437-.732.977s.328.977.732.977h7.537c.4,0,.732-.437.732-.977S115.131,120,114.727,120Z" transform="translate(-102.639 -115.365)" fill="#67cf94"/>
</svg>
