<svg id="copy" xmlns="http://www.w3.org/2000/svg" width="16" height="20" viewBox="0 0 16 20">
  <rect id="Rectangle_589" data-name="Rectangle 589" width="10" height="14" transform="translate(4.999 5)" fill="#8280fd"/>
  <path id="Icon_material-content-copy" data-name="Icon material-content-copy" d="M14.568,1.5h-9.8A1.8,1.8,0,0,0,3,3.318V16.045H4.773V3.318h9.8Zm2.659,3.636H8.319A1.8,1.8,0,0,0,6.546,6.955V19.682A1.8,1.8,0,0,0,8.319,21.5h8.909A1.8,1.8,0,0,0,19,19.682V6.955A1.8,1.8,0,0,0,17.227,5.136Zm0,14.545H8.319V6.955h8.909Z" transform="translate(-3 -1.5)" fill="#fff"/>
</svg>
