<svg id="globe-icon" xmlns="http://www.w3.org/2000/svg" width="24" height="24" viewBox="0 0 24 24">
  <ellipse id="Ellipse_21" data-name="Ellipse 21" cx="11.5" cy="11.5" rx="11.5" ry="11.5" transform="translate(1 0.597)" fill="#e9e7ff"/>
  <path id="internet" d="M20.485,3.515A11.921,11.921,0,0,0,12,0h0A12,12,0,0,0,3.514,20.485a12,12,0,0,0,16.97-16.97Zm.784,13.609H17.756a15.793,15.793,0,0,0,.82-4.421h3.993A10.515,10.515,0,0,1,21.268,17.124ZM12,22.489A9.953,9.953,0,0,1,8.369,18.53H15.63A9.953,9.953,0,0,1,12,22.489ZM7.733,17.124a14.3,14.3,0,0,1-.9-4.421H17.169a14.3,14.3,0,0,1-.9,4.421ZM1.43,12.7H5.422a15.793,15.793,0,0,0,.82,4.421H2.73A10.515,10.515,0,0,1,1.43,12.7Zm1.3-5.827H6.243a15.793,15.793,0,0,0-.82,4.421H1.43a10.515,10.515,0,0,1,1.3-4.421ZM12,1.51A9.953,9.953,0,0,1,15.63,5.469H8.369A9.953,9.953,0,0,1,12,1.51Zm4.266,5.365a14.3,14.3,0,0,1,.9,4.421H6.83a14.3,14.3,0,0,1,.9-4.421Zm6.3,4.421H18.576a15.793,15.793,0,0,0-.82-4.421h3.512A10.515,10.515,0,0,1,22.569,11.3ZM17.193,5.469a12.449,12.449,0,0,0-2.625-3.748,10.618,10.618,0,0,1,5.767,3.748ZM9.431,1.722A12.449,12.449,0,0,0,6.806,5.469H3.664A10.618,10.618,0,0,1,9.431,1.722ZM6.806,18.53a12.449,12.449,0,0,0,2.625,3.748A10.618,10.618,0,0,1,3.664,18.53Zm7.763,3.748a12.451,12.451,0,0,0,2.625-3.748h3.142a10.618,10.618,0,0,1-5.767,3.748Zm0,0" transform="translate(0)" fill="#8280fd"/>
</svg>
