<svg xmlns="http://www.w3.org/2000/svg" width="25" height="27.27" viewBox="0 0 25 27.27">
  <path id="Icon" d="M446.357,2008.34v5.87a.733.733,0,0,0,1.465,0v-2.53h1.465v2.53a2.2,2.2,0,0,1-4.394,0v-5.87H430v12.24l6.689-3.76,6.036,3.39,5.761-1.9,6.514,2.68v-12.65Zm-11.23,7.16a2.151,2.151,0,1,1,2.2-2.15,2.18,2.18,0,0,1-2.2,2.15Zm0,0v-2.86a.715.715,0,1,0,.732.71.724.724,0,0,0-.732-.71h0Zm0,0,7.441,9.13-5.879-3.3-6.689.9V2026h25v-3.46l-6.572-2.7Zm0,0,3.789-14.62a.726.726,0,0,1,.733-.72h2.929a.731.731,0,0,1,.69.48H452.2a2.186,2.186,0,0,0-2.184-1.91H447.09a2.173,2.173,0,0,0-2.2,2.15v1.19h1.464v-1.19Zm0,0" transform="translate(-430 -1998.73)" fill="#424b54" fill-rule="evenodd"/>
</svg>
