<svg xmlns="http://www.w3.org/2000/svg" width="25" height="25" viewBox="0 0 25 25">
  <g id="info2" transform="translate(1 1)">
    <circle id="Ellipse_76" data-name="Ellipse 76" cx="11.5" cy="11.5" r="11.5" fill="#ccf5f8" stroke="#09d1de" stroke-width="2"/>
    <path id="Path_480" data-name="Path 480" d="M109.658,13.319l-.218.89q-.98.387-1.563.589a4.123,4.123,0,0,1-1.356.2,2.706,2.706,0,0,1-1.844-.578,1.872,1.872,0,0,1-.658-1.469,5.2,5.2,0,0,1,.049-.707q.05-.362.159-.816l.816-2.889q.109-.415.184-.787a3.418,3.418,0,0,0,.074-.677,1.047,1.047,0,0,0-.228-.772,1.29,1.29,0,0,0-.873-.218,2.287,2.287,0,0,0-.649.1c-.222.066-.412.129-.571.188l.218-.891q.8-.327,1.535-.559a4.59,4.59,0,0,1,1.388-.233,2.64,2.64,0,0,1,1.816.569,1.889,1.889,0,0,1,.638,1.479c0,.126-.014.347-.044.663a4.434,4.434,0,0,1-.164.871l-.813,2.877a7.641,7.641,0,0,0-.179.793,4.079,4.079,0,0,0-.079.672.969.969,0,0,0,.256.782,1.445,1.445,0,0,0,.889.208,2.567,2.567,0,0,0,.672-.1A3.759,3.759,0,0,0,109.658,13.319Zm.206-11.5A1.684,1.684,0,0,1,109.3,3.1a1.935,1.935,0,0,1-1.369.53,1.957,1.957,0,0,1-1.376-.53,1.68,1.68,0,0,1-.574-1.281,1.7,1.7,0,0,1,.574-1.286,2.031,2.031,0,0,1,2.745,0A1.7,1.7,0,0,1,109.864,1.819Z" transform="translate(-95.039 4)" fill="#09d1de"/>
  </g>
</svg>
