<svg xmlns="http://www.w3.org/2000/svg" width="59" height="60" viewBox="0 0 59 60">
  <g id="linkedin" transform="translate(-1 -0.411)">
    <path id="Path_426" data-name="Path 426" d="M47.532,49.332h0v-23c0-10.839-2.329-19-15-19a13.725,13.725,0,0,0-12,7h0v-6h-12v41h12v-20c0-5.258,1.488-11,8-11,6.416,0,6,6.321,6,11v20Z" transform="translate(12.468 11.08)" fill="#1492ce"/>
    <path id="Path_427" data-name="Path 427" d="M.4,7.72h13v41H.4Z" transform="translate(0.601 11.691)" fill="#1492ce"/>
    <path id="Path_428" data-name="Path 428" d="M6.533.411C2.8.411,0,3.406,0,7.411s2.8,7,6.533,7,7.467-3,7.467-7S10.269.411,6.533.411Z" transform="translate(1)" fill="#1492ce"/>
  </g>
</svg>
