<svg xmlns="http://www.w3.org/2000/svg" width="16" height="20" viewBox="0 0 16 20">
  <g id="location-color" fill="#e9e7ff">
    <path d="M 8.000089645385742 18.50357818603516 C 7.246682167053223 17.64644813537598 6.013450145721436 16.19483375549316 4.792530059814453 14.54675006866455 C 2.346879959106445 11.24543952941895 1 8.565279960632324 1 7 C 1 5.202380180358887 1.684880018234253 3.68560004234314 2.980590105056763 2.613640069961548 C 4.238359928131104 1.573070049285889 6.020959854125977 1 8 1 C 9.979040145874023 1 11.76163959503174 1.573070049285889 13.01941013336182 2.613640069961548 C 14.31511974334717 3.68560004234314 15 5.202380180358887 15 7 C 15 8.567760467529297 13.64929008483887 11.25308990478516 11.19668006896973 14.56130027770996 C 9.977639198303223 16.20561599731445 8.750625610351563 17.64982795715332 8.000089645385742 18.50357818603516 Z" stroke="none"/>
    <path d="M 8 2 C 6.253129959106445 2 4.696920394897461 2.491559982299805 3.618029594421387 3.384140014648438 C 2.544380187988281 4.272379875183105 2 5.488929748535156 2 7 C 2 7.629480361938477 2.349360466003418 9.565529823303223 5.585399627685547 13.93708038330078 C 6.441986083984375 15.09424495697021 7.305871963500977 16.15402984619141 8.000221252441406 16.97319793701172 C 8.687623977661133 16.16218566894531 9.542072296142578 15.11402893066406 10.39336967468262 13.96574974060059 C 13.64857006072998 9.574950218200684 14 7.631679534912109 14 7 C 14 5.488929748535156 13.45561981201172 4.272379875183105 12.3819694519043 3.384140014648438 C 11.30307960510254 2.491559982299805 9.746870040893555 2 8 2 M 8 0 C 12.41827964782715 0 16 2.581720352172852 16 7 C 16 11.41827964782715 8 20 8 20 C 8 20 0 11.41827964782715 0 7 C 0 2.581720352172852 3.581720352172852 0 8 0 Z" stroke="none" fill="#8280fd"/>
  </g>
</svg>
