<svg id="location-icon1" xmlns="http://www.w3.org/2000/svg" width="16" height="20" viewBox="0 0 16 20">
  <g id="Location" fill="#f5f5f5">
    <path d="M 8.000029563903809 19.25669288635254 C 7.334029197692871 18.51410102844238 5.857196807861328 16.8231258392334 4.396230220794678 14.85175037384033 C 1.8472900390625 11.41232013702393 0.5 8.697219848632813 0.5 7 C 0.5 5.048460006713867 1.247560024261475 3.398469924926758 2.661870002746582 2.228389978408813 C 4.009079933166504 1.11381995677948 5.90487003326416 0.5 8 0.5 C 10.09512996673584 0.5 11.9909200668335 1.11381995677948 13.33812999725342 2.228389978408813 C 14.75244045257568 3.398469924926758 15.5 5.048460006713867 15.5 7 C 15.5 8.69851016998291 14.15083026885986 11.41613960266113 11.59834003448486 14.85908031463623 C 10.13808345794678 16.82875823974609 8.664947509765625 18.51539421081543 8.000029563903809 19.25669288635254 Z" stroke="none"/>
    <path d="M 8 1 C 6.020959854125977 1 4.238360404968262 1.573070526123047 2.980589866638184 2.613639831542969 C 1.684880256652832 3.685600280761719 1 5.202380180358887 1 7 C 1 8.565279960632324 2.346879959106445 11.24543952941895 4.792530059814453 14.54675006866455 C 6.013449668884277 16.19483375549316 7.246701240539551 17.64647102355957 8.000089645385742 18.50357818603516 C 8.750625610351563 17.64982795715332 9.977640151977539 16.20561599731445 11.19668006896973 14.56130027770996 C 13.64929008483887 11.25308990478516 15 8.567760467529297 15 7 C 15 5.202380180358887 14.31511974334717 3.685600280761719 13.01941013336182 2.613639831542969 C 11.76164054870605 1.573070526123047 9.979040145874023 1 8 1 M 8 0 C 12.41827964782715 0 16 2.581720352172852 16 7 C 16 11.41827964782715 8 20 8 20 C 8 20 0 11.41827964782715 0 7 C 0 2.581720352172852 3.581720352172852 0 8 0 Z" stroke="none" fill="#c4c4c4"/>
  </g>
</svg>
