<svg xmlns="http://www.w3.org/2000/svg" width="19" height="22" viewBox="0 0 19 22">
  <g id="tag" transform="translate(0 0.001)" fill="#e9e7ff" stroke-linecap="round" stroke-linejoin="round">
    <path d="M 18 20.9990234375 L 6.894913673400879 20.9990234375 L 1.153133630752563 11.01394748687744 L 6.895734310150146 0.9990234375 L 18 0.9990234375 L 18 20.9990234375 Z M 9.931639671325684 7.799803256988525 C 8.190199851989746 7.799803256988525 6.773439884185791 9.234963417053223 6.773439884185791 10.9990234375 C 6.773439884185791 12.76415348052979 8.190199851989746 14.20019340515137 9.931639671325684 14.20019340515137 C 11.67416000366211 14.20019340515137 13.09179973602295 12.76415348052979 13.09179973602295 10.9990234375 C 13.09179973602295 9.234963417053223 11.67416000366211 7.799803256988525 9.931639671325684 7.799803256988525 Z" stroke="none"/>
    <path d="M 17 19.9990234375 L 17 1.9990234375 L 7.47506856918335 1.9990234375 L 2.306279897689819 11.0132360458374 L 7.473433017730713 19.9990234375 L 17 19.9990234375 M 9.931639671325684 6.799803256988525 C 12.22556018829346 6.799803256988525 14.09179973602295 8.683563232421875 14.09179973602295 10.9990234375 C 14.09179973602295 13.31555366516113 12.22556018829346 15.20019340515137 9.931639671325684 15.20019340515137 C 7.638800144195557 15.20019340515137 5.773439884185791 13.31555366516113 5.773439884185791 10.9990234375 C 5.773439884185791 8.683563232421875 7.638800144195557 6.799803256988525 9.931639671325684 6.799803256988525 M 19 21.9990234375 L 18.99805068969727 21.9990234375 L 6.316410064697266 21.9990234375 L 0 11.01465320587158 L 6.316410064697266 -0.0009765625 L 19 -0.0009765625 L 19 21.99707412719727 L 19 21.9990234375 Z M 9.931639671325684 8.799803733825684 C 8.742190361022949 8.799803733825684 7.773439884185791 9.786133766174316 7.773439884185791 10.9990234375 C 7.773439884185791 12.21386337280273 8.742190361022949 13.20019340515137 9.931639671325684 13.20019340515137 C 11.12304973602295 13.20019340515137 12.09179973602295 12.21386337280273 12.09179973602295 10.9990234375 C 12.09179973602295 9.786133766174316 11.12304973602295 8.799803733825684 9.931639671325684 8.799803733825684 Z" stroke="none" fill="#8280fd"/>
  </g>
</svg>
