<svg xmlns="http://www.w3.org/2000/svg" width="20.998" height="19.004" viewBox="0 0 20.998 19.004">
  <path id="video-call-fill" d="M11.7,19H3.6a3.234,3.234,0,0,1-2.543-1.255A4.557,4.557,0,0,1,0,14.726V4.274A4.561,4.561,0,0,1,1.058,1.252,3.234,3.234,0,0,1,3.6,0h8.1a3.235,3.235,0,0,1,2.544,1.255A4.561,4.561,0,0,1,15.3,4.274V5.9l4.337-3.489a.7.7,0,0,1,.563-.283.761.761,0,0,1,.313.075A.906.906,0,0,1,21,3.075V15.924a.907.907,0,0,1-.487.877.749.749,0,0,1-.313.074.7.7,0,0,1-.562-.282l-4.337-3.5v1.638a4.557,4.557,0,0,1-1.056,3.021A3.234,3.234,0,0,1,11.7,19ZM7.674,6.608A2.826,2.826,0,1,0,10.5,9.435,2.83,2.83,0,0,0,7.674,6.608Z" transform="translate(-0.002 0.003)" fill="#bfbeff"/>
</svg>
