<svg xmlns="http://www.w3.org/2000/svg" width="24.999" height="22.004" viewBox="0 0 24.999 22.004">
  <path id="video-call" d="M12.813,20H3.943a3.6,3.6,0,0,1-2.786-1.32A4.685,4.685,0,0,1,0,15.5V4.5A4.688,4.688,0,0,1,1.156,1.32,3.6,3.6,0,0,1,3.943,0h8.87A3.594,3.594,0,0,1,15.6,1.32,4.684,4.684,0,0,1,16.755,4.5V6.21l4.75-3.674a.776.776,0,0,1,.616-.3.841.841,0,0,1,.342.078A.95.95,0,0,1,23,3.24V16.765a.948.948,0,0,1-.535.922.847.847,0,0,1-.342.078.77.77,0,0,1-.616-.3l-4.75-3.689V15.5A4.682,4.682,0,0,1,15.6,18.684,3.594,3.594,0,0,1,12.813,20ZM8.351,6.958A3.044,3.044,0,1,0,11.4,10,3.048,3.048,0,0,0,8.351,6.958Z" transform="translate(1 1)" fill="#e9e7ff" stroke="#8280fd" stroke-linecap="round" stroke-linejoin="round" stroke-width="2"/>
</svg>
