<svg xmlns="http://www.w3.org/2000/svg" width="24" height="24.999" viewBox="0 0 24 24.999">
  <path id="attach" d="M40.053,16.01l-9.73-9.144a3.448,3.448,0,0,0-2.5-.991,3.274,3.274,0,0,0-2.328.9,2.887,2.887,0,0,0-.955,2.188A3.051,3.051,0,0,0,25.6,11.3l6.867,6.453a.528.528,0,0,0,.369.157q.268,0,.787-.488t.519-.74a.469.469,0,0,0-.167-.346L27.107,9.888a1.3,1.3,0,0,1-.419-.928.992.992,0,0,1,.318-.756,1.127,1.127,0,0,1,.8-.3,1.488,1.488,0,0,1,1,.378l9.73,9.144A3.048,3.048,0,0,1,39.6,19.708a4.5,4.5,0,0,1-1.257,2.306,2.491,2.491,0,0,1-1.776.661,3.441,3.441,0,0,1-2.428-.992l-13-12.228a3.777,3.777,0,0,1-1.273-2.849A6,6,0,0,1,21.648,3.12a5.234,5.234,0,0,1,3.314-1.494A5.523,5.523,0,0,1,28.5,2.691l10.149,9.553a.545.545,0,0,0,.385.157,1.433,1.433,0,0,0,.779-.48q.511-.48.511-.732a.469.469,0,0,0-.167-.346L30.021,1.306A7.668,7.668,0,0,0,24.945-.326a7.367,7.367,0,0,0-4.821,2.061,7.7,7.7,0,0,0-2.4,4.887,5.713,5.713,0,0,0,1.892,4.265L32.633,23.1a5.561,5.561,0,0,0,3.935,1.574,4.609,4.609,0,0,0,3.282-1.244,6.17,6.17,0,0,0,1.877-3.723A4.854,4.854,0,0,0,40.053,16.01Z" transform="translate(-17.728 0.326)" fill="#8280fd"/>
</svg>
