<svg xmlns="http://www.w3.org/2000/svg" width="23.15" height="23.027" viewBox="0 0 23.15 23.027">
  <g id="audio-call" transform="translate(0.987 1)">
    <path id="call" d="M20.529,17l-3.243-3.251A1.688,1.688,0,0,0,14.9,13.8l-1.634,1.637a14.121,14.121,0,0,1-4.252-3.029A12.683,12.683,0,0,1,5.991,8.145L7.627,6.506a1.7,1.7,0,0,0,.043-2.39L4.427.865A1.687,1.687,0,0,0,2.043.91,6.985,6.985,0,0,0,.066,4.539c-.428,3.558,1.194,6.81,5.6,11.223,6.086,6.1,10.99,5.639,11.2,5.616a9.337,9.337,0,0,0,3.621-1.983A1.7,1.7,0,0,0,20.529,17Z" transform="translate(0 -0.394)" fill="#e9e7ff" stroke="#8280fd" stroke-linecap="round" stroke-linejoin="round" stroke-width="2"/>
  </g>
</svg>
