<svg xmlns="http://www.w3.org/2000/svg" width="19" height="19" viewBox="0 0 19 19">
  <path id="audio-call-fill" d="M18.574,15.422,15.639,12.48a1.527,1.527,0,0,0-2.157.041L12,14a12.776,12.776,0,0,1-3.847-2.74A11.475,11.475,0,0,1,5.421,7.406L6.9,5.924A1.534,1.534,0,0,0,6.94,3.762L4.006.82A1.526,1.526,0,0,0,1.849.861,6.32,6.32,0,0,0,.06,4.144C-.328,7.363,1.14,10.305,5.123,14.3c5.506,5.518,9.944,5.1,10.135,5.081a8.448,8.448,0,0,0,3.276-1.794A1.537,1.537,0,0,0,18.574,15.422Z" transform="translate(0 -0.394)" fill="#bfbeff"/>
</svg>
