<svg xmlns="http://www.w3.org/2000/svg" width="21.999" height="21.005" viewBox="0 0 21.999 21.005">
  <g id="comment" transform="translate(1 1)">
    <path id="Union_3" data-name="Union 3" d="M.565,18.285A4.3,4.3,0,0,0,2.843,15.41,9.28,9.28,0,0,1,.673,9.445,9.556,9.556,0,0,1,10.336,0,9.557,9.557,0,0,1,20,9.445a9.557,9.557,0,0,1-9.663,9.446,9.794,9.794,0,0,1-4.53-1.1A10.107,10.107,0,0,1,1.156,19C.03,19-.47,18.709.565,18.285Z" transform="translate(0 0.002)" fill="#f5f5f5" stroke="#c4c4c4" stroke-linejoin="round" stroke-width="2"/>
    <circle id="Ellipse_9" data-name="Ellipse 9" cx="1.5" cy="1.5" r="1.5" transform="translate(4.262 7.947)" fill="#c4c4c4"/>
    <circle id="Ellipse_12" data-name="Ellipse 12" cx="1.5" cy="1.5" r="1.5" transform="translate(8.799 7.947)" fill="#c4c4c4"/>
    <circle id="Ellipse_11" data-name="Ellipse 11" cx="1.5" cy="1.5" r="1.5" transform="translate(13.337 7.947)" fill="#c4c4c4"/>
  </g>
</svg>
