<svg xmlns="http://www.w3.org/2000/svg" width="20" height="22" viewBox="0 0 20 22">
  <g id="delete" transform="translate(1 1)">
    <rect id="Rectangle_338" data-name="Rectangle 338" width="18" height="4" rx="2" transform="translate(0 3)" fill="#ffe2e6" stroke="#fe5280" stroke-linecap="round" stroke-width="2"/>
    <path id="Rectangle_339" data-name="Rectangle 339" d="M3,0H5A3,3,0,0,1,8,3V3A0,0,0,0,1,8,3H0A0,0,0,0,1,0,3V3A3,3,0,0,1,3,0Z" transform="translate(5)" fill="#ffe2e6" stroke="#fe5280" stroke-width="2"/>
    <path id="Rectangle_340" data-name="Rectangle 340" d="M0,0H14a0,0,0,0,1,0,0V10a3,3,0,0,1-3,3H3a3,3,0,0,1-3-3V0A0,0,0,0,1,0,0Z" transform="translate(2 7)" fill="#ffe2e6" stroke="#fe5280" stroke-width="2"/>
    <line id="Line_28" data-name="Line 28" y2="5" transform="translate(7 11.719)" fill="none" stroke="#fe5280" stroke-linecap="round" stroke-width="1"/>
    <line id="Line_29" data-name="Line 29" y2="5" transform="translate(11 11.719)" fill="none" stroke="#fe5280" stroke-linecap="round" stroke-width="1"/>
  </g>
</svg>
