<svg xmlns="http://www.w3.org/2000/svg" width="26.467" height="24.929" viewBox="0 0 26.467 24.929">
  <g id="drag_c" transform="translate(0.451 0.25)">
    <path id="Path_366" data-name="Path 366" d="M-22671.426-18549.951c.1,1.342-1.914,5.709,4.854,7h7.8s2.99-.227,6.516-5.18,1.3-8.525-1.025-11.246a89.871,89.871,0,0,0-6.74-6.648,2.772,2.772,0,0,0-3.6,2.777c-.035-.014-2.172-1.875-3.719-.812a2.644,2.644,0,0,0-.859,2.984c0,.016-1.953-1.734-3.625-.547s-.437,3.531-.437,3.531-2.453,1.375-2.531,3.25S-22671.523-18551.293-22671.426-18549.951Z" transform="translate(22675.469 18566.723)" fill="#e9e7ff"/>
    <path id="Path_365" data-name="Path 365" d="M23.2,18.2,16.55,11.547a3.036,3.036,0,0,0-5.126,1.569,3.034,3.034,0,0,0-5.047,1.866A3.034,3.034,0,0,0,2.52,19.4,3.035,3.035,0,0,0,.887,24.534l2.134,2.134v2.4a6.028,6.028,0,0,0,6.021,6.021h6.593a7.315,7.315,0,0,0,5.2-2.155L23.2,30.567a8.744,8.744,0,0,0,0-12.365ZM22.26,29.621l-2.365,2.365a5.989,5.989,0,0,1-4.259,1.763H9.042a4.688,4.688,0,0,1-4.683-4.683V28.006l1.533,1.535a.669.669,0,0,0,.946-.947L1.833,23.588a1.7,1.7,0,0,1,0-2.4,1.737,1.737,0,0,1,2.4,0l1.66,1.66a.669.669,0,0,0,.946-.947l-3-3a1.7,1.7,0,0,1,2.4-2.4l3,3a.669.669,0,0,0,.946-.947L8.188,16.564a1.7,1.7,0,0,1,2.4-2.4l1.995,1.995a.669.669,0,0,0,.946-.947l-.322-.322a1.7,1.7,0,0,1,0-2.4,1.737,1.737,0,0,1,2.4,0l6.655,6.655a7.407,7.407,0,0,1,0,10.473Z" transform="translate(0 -10.659)" fill="#8280fd" stroke="#8280fd" stroke-width="0.5"/>
  </g>
</svg>
