<svg xmlns="http://www.w3.org/2000/svg" width="20" height="19" viewBox="0 0 20 19">
  <g id="dragicon" transform="translate(-674 -9)">
    <path id="Path_366" data-name="Path 366" d="M-22672.223-18553.74c.074,1.029-1.459,4.371,3.707,5.361h5.953s2.281-.174,4.975-3.967.992-6.529-.783-8.613a69.11,69.11,0,0,0-5.146-5.092,2.121,2.121,0,0,0-2.752,2.131c-.025-.012-1.656-1.441-2.836-.625a2.026,2.026,0,0,0-.656,2.287c0,.012-1.492-1.33-2.768-.42s-.336,2.7-.336,2.7-1.873,1.051-1.932,2.488S-22672.3-18554.764-22672.223-18553.74Z" transform="translate(23349.469 18575.723)" fill="#fff"/>
    <path id="Path_365" data-name="Path 365" d="M18.012,16.526,12.846,11.35A2.356,2.356,0,0,0,8.868,12.57,2.354,2.354,0,0,0,4.95,14.022a2.358,2.358,0,0,0-2.994,3.434A2.361,2.361,0,0,0,.688,21.451l1.656,1.66v1.866a4.684,4.684,0,0,0,4.673,4.683h5.118a5.673,5.673,0,0,0,4.04-1.676l1.836-1.84a6.81,6.81,0,0,0,0-9.617Zm-.733,8.881-1.836,1.84a4.644,4.644,0,0,1-3.306,1.371H7.018a3.642,3.642,0,0,1-3.635-3.642v-.825l1.19,1.194a.52.52,0,0,0,.734-.737L1.423,20.715a1.321,1.321,0,0,1,0-1.865,1.346,1.346,0,0,1,1.862,0l1.289,1.291a.52.52,0,0,0,.734-.737L2.98,17.073a1.318,1.318,0,0,1,1.862-1.866L7.17,17.54A.52.52,0,0,0,7.9,16.8L6.356,15.252a1.318,1.318,0,0,1,1.863-1.865l1.548,1.552A.52.52,0,0,0,10.5,14.2l-.25-.251a1.323,1.323,0,0,1,0-1.866,1.346,1.346,0,0,1,1.862,0l5.166,5.176a5.769,5.769,0,0,1,0,8.146Z" transform="translate(674 -1.659)" fill="#c4c4c4"/>
  </g>
</svg>
