<svg xmlns="http://www.w3.org/2000/svg" width="60" height="60" viewBox="0 0 60 60">
  <g id="facebook" transform="translate(0 -0.001)">
    <path id="Path_425" data-name="Path 425" d="M56.686,0H3.312A3.311,3.311,0,0,0,0,3.313V56.687A3.313,3.313,0,0,0,3.312,60H32.047V36.765H24.228V27.709h7.819V21.03c0-7.748,4.731-11.97,11.645-11.97a64.85,64.85,0,0,1,6.986.356v8.1l-4.8,0c-3.759,0-4.484,1.787-4.484,4.408v5.78h8.969l-1.173,9.056H41.4V60H56.685A3.315,3.315,0,0,0,60,56.687V3.311A3.312,3.312,0,0,0,56.686,0Z" transform="translate(0)" fill="#5174be"/>
  </g>
</svg>
