<svg id="Info" xmlns="http://www.w3.org/2000/svg" width="20" height="20" viewBox="0 0 20 20">
  <g id="Ellipse_19" data-name="Ellipse 19" fill="#fff" stroke="#c4c4c4" stroke-width="1">
    <circle cx="10" cy="10" r="10" stroke="none"/>
    <circle cx="10" cy="10" r="9.5" fill="none"/>
  </g>
  <path id="Path_364" data-name="Path 364" d="M107.831,8.879l-.158.593q-.712.258-1.135.393a3.242,3.242,0,0,1-.985.135,2.084,2.084,0,0,1-1.339-.386,1.206,1.206,0,0,1-.478-.98,3.186,3.186,0,0,1,.036-.471,5.348,5.348,0,0,1,.116-.544l.593-1.926q.079-.277.133-.524a2.1,2.1,0,0,0,.054-.451A.661.661,0,0,0,104.5,4.2a1,1,0,0,0-.634-.145,1.8,1.8,0,0,0-.471.066c-.161.044-.3.086-.415.125l.159-.594q.583-.218,1.115-.373a3.606,3.606,0,0,1,1.008-.155,2.033,2.033,0,0,1,1.319.38,1.214,1.214,0,0,1,.464.986c0,.084-.01.231-.032.442a2.739,2.739,0,0,1-.119.581l-.59,1.918a4.742,4.742,0,0,0-.13.528,2.5,2.5,0,0,0-.058.448.615.615,0,0,0,.186.521,1.123,1.123,0,0,0,.646.138A2.02,2.02,0,0,0,107.436,9,2.9,2.9,0,0,0,107.831,8.879Zm.15-8.666a1.083,1.083,0,0,1-.413.854,1.477,1.477,0,0,1-.994.353,1.5,1.5,0,0,1-1-.353,1.087,1.087,0,0,1,0-1.711,1.487,1.487,0,0,1,1-.356,1.472,1.472,0,0,1,.994.356A1.093,1.093,0,0,1,107.981.213Z" transform="translate(-95.981 5)" fill="#727272"/>
</svg>
