<svg id="l" xmlns="http://www.w3.org/2000/svg" width="10" height="12.5" viewBox="0 0 10 12.5">
  <g id="Location" fill="#fff4e6">
    <path d="M 5.000106811523438 10.99322414398193 C 4.537727355957031 10.45553684234619 3.912317514419556 9.699939727783203 3.292629957199097 8.863059997558594 C 1.223399996757507 6.068580150604248 1 4.793499946594238 1 4.375 C 1 3.36693000793457 1.381029963493347 2.518860101699829 2.10191011428833 1.922459959983826 C 2.820940017700195 1.327600002288818 3.850159883499146 1 5 1 C 6.149839878082275 1 7.179059982299805 1.327600002288818 7.89808988571167 1.922459959983826 C 8.618969917297363 2.518860101699829 9 3.36693000793457 9 4.375 C 9 4.79463005065918 8.77556037902832 6.073369979858398 6.696680068969727 8.877479553222656 C 6.079383850097656 9.710123062133789 5.459177017211914 10.45940780639648 5.000106811523438 10.99322414398193 Z" stroke="none"/>
    <path d="M 5 2 C 4.082339763641357 2 3.279489994049072 2.246100425720215 2.739349842071533 2.692959785461426 C 2.24183988571167 3.104559898376465 2 3.654760360717773 2 4.375 C 2 4.483340263366699 2.058529853820801 5.512619972229004 4.085790157318115 8.253780364990234 C 4.396221160888672 8.673529624938965 4.708559989929199 9.072694778442383 5.000146389007568 9.432875633239746 C 5.284546375274658 9.081435203552246 5.589150905609131 8.692275047302246 5.893370151519775 8.281929969787598 C 7.940890312194824 5.520120143890381 8 4.484049797058105 8 4.375 C 8 3.654760360717773 7.75816011428833 3.104559898376465 7.260649681091309 2.692959785461426 C 6.720510005950928 2.246100425720215 5.917660236358643 2 5 2 M 5 0 C 7.761420249938965 0 10 1.613579750061035 10 4.375 C 10 7.136419773101807 5 12.5 5 12.5 C 5 12.5 0 7.136419773101807 0 4.375 C 0 1.613579750061035 2.238580226898193 0 5 0 Z" stroke="none" fill="#ffb959"/>
  </g>
</svg>
