<svg xmlns="http://www.w3.org/2000/svg" width="88.5" height="60.367" viewBox="0 0 88.5 60.367">
  <g id="p_img2" transform="translate(-397 -396.133)">
    <g id="Line">
      <line id="Line_88" data-name="Line 88" x1="32.5" transform="translate(398 447.5)" fill="none" stroke="#fff" stroke-linecap="round" stroke-width="2" opacity="0.4"/>
      <line id="Line_91" data-name="Line 91" x1="18" transform="translate(461.5 447.5)" fill="none" stroke="#fff" stroke-linecap="round" stroke-width="2" opacity="0.4"/>
      <line id="Line_89" data-name="Line 89" x1="23" transform="translate(413.5 455.5)" fill="none" stroke="#fff" stroke-linecap="round" stroke-width="2" opacity="0.4"/>
      <line id="Line_93" data-name="Line 93" x1="18" transform="translate(445.5 452.5)" fill="none" stroke="#fff" stroke-linecap="round" stroke-width="2" opacity="0.4"/>
    </g>
    <g id="cycle" transform="translate(0 3.272)">
      <g id="Ellipse_115" data-name="Ellipse 115" transform="translate(455.5 409.73)" fill="none" stroke="#fff" stroke-width="3">
        <ellipse cx="15" cy="15.5" rx="15" ry="15.5" stroke="none"/>
        <ellipse cx="15" cy="15.5" rx="13.5" ry="14" fill="none"/>
      </g>
      <g id="Ellipse_116" data-name="Ellipse 116" transform="translate(406.5 408.73)" fill="none" stroke="#fff" stroke-width="3">
        <circle cx="16.5" cy="16.5" r="16.5" stroke="none"/>
        <circle cx="16.5" cy="16.5" r="15" fill="none"/>
      </g>
      <path id="Path_519" data-name="Path 519" d="M416.851,425.962l17.928-22.557,8,22.557Z" transform="translate(5.376 -1.486)" fill="none" stroke="#fff" stroke-linecap="round" stroke-linejoin="round" stroke-width="3"/>
      <path id="Path_520" data-name="Path 520" d="M431.415,395.8h6.92" transform="translate(2.988 -1)" fill="none" stroke="#fff" stroke-linecap="round" stroke-width="3"/>
      <path id="Path_521" data-name="Path 521" d="M435.46,395.8l2.786,7.115h18.181l-10,21.46-1.8,8.033" transform="translate(1.909 -1)" fill="none" stroke="#fff" stroke-linecap="round" stroke-linejoin="round" stroke-width="3"/>
      <path id="Path_522" data-name="Path 522" d="M445,434.5h4.4" transform="translate(-0.637 -3.473)" fill="none" stroke="#fff" stroke-linecap="round" stroke-width="3"/>
      <path id="Path_523" data-name="Path 523" d="M475.038,426.27l-14.2-29.852h10.551s2.8,1.606,0,5.393c.011.009-2.062,0-2.062,0" transform="translate(-4.863 -1.039)" fill="none" stroke="#fff" stroke-linecap="round" stroke-linejoin="round" stroke-width="3"/>
    </g>
  </g>
</svg>
