<svg xmlns="http://www.w3.org/2000/svg" width="10" height="13" viewBox="0 0 10 13">
  <g id="popup-location" transform="translate(0 0)" fill="#f5f5f5" stroke-linecap="round" stroke-linejoin="round">
    <path d="M 5 12.24043560028076 C 3.465884923934937 10.44851016998291 0.5 6.567797183990479 0.5 4.550000667572021 C 0.5 3.331530570983887 0.9462699890136719 2.303500413894653 1.790580034255981 1.577060461044312 C 2.597810029983521 0.8825104832649231 3.737610101699829 0.5000004768371582 5 0.5000004768371582 C 6.26239013671875 0.5000004768371582 7.402190208435059 0.8825104832649231 8.209429740905762 1.577060461044312 C 9.053730010986328 2.303500413894653 9.5 3.331530570983887 9.5 4.550000667572021 C 9.5 6.567797183990479 6.534114837646484 10.44851016998291 5 12.24043560028076 Z" stroke="none"/>
    <path d="M 5 1.000000953674316 C 3.857230186462402 1.000000953674316 2.833250045776367 1.339540481567383 2.116680145263672 1.956080436706543 C 1.386139869689941 2.584640502929688 1 3.481600761413574 1 4.550000190734863 C 1 5.099440574645996 1.299309730529785 6.441530704498291 3.303850173950195 9.256850242614746 C 3.918447494506836 10.12002372741699 4.538569450378418 10.90002059936523 4.999999523162842 11.4586009979248 C 5.461446285247803 10.90000247955322 6.081552505493164 10.12002372741699 6.696149826049805 9.256850242614746 C 8.700690269470215 6.441530704498291 9 5.099440574645996 9 4.550000190734863 C 9 3.481600761413574 8.613860130310059 2.584640502929688 7.883319854736328 1.956080436706543 C 7.166749954223633 1.339540481567383 6.142769813537598 1.000000953674316 5 1.000000953674316 M 5 9.5367431640625e-07 C 7.761420249938965 9.5367431640625e-07 10 1.678120613098145 10 4.550000190734863 C 10 7.42188024520874 5 13 5 13 C 5 13 0 7.42188024520874 0 4.550000190734863 C 0 1.678120613098145 2.238580226898193 9.5367431640625e-07 5 9.5367431640625e-07 Z" stroke="none" fill="#c4c4c4"/>
  </g>
</svg>
