<svg xmlns="http://www.w3.org/2000/svg" width="13.3" height="14.3" viewBox="0 0 13.3 14.3">
  <g id="post-attach" transform="translate(0.15 0.15)">
    <path id="Path_442" data-name="Path 442" d="M29.821,8.822,24.55,3.7A1.836,1.836,0,0,0,23.2,3.146a1.742,1.742,0,0,0-1.261.5,1.643,1.643,0,0,0-.517,1.225,1.734,1.734,0,0,0,.572,1.313L25.711,9.8a.281.281,0,0,0,.2.088q.145,0,.426-.273t.281-.414a.266.266,0,0,0-.091-.194L22.809,5.394a.741.741,0,0,1-.227-.52.565.565,0,0,1,.172-.423.6.6,0,0,1,.435-.167.791.791,0,0,1,.544.211L29,9.615a1.732,1.732,0,0,1,.572,1.278,2.546,2.546,0,0,1-.681,1.291,1.324,1.324,0,0,1-.962.37A1.833,1.833,0,0,1,26.618,12l-7.04-6.848a2.148,2.148,0,0,1-.689-1.6A3.4,3.4,0,0,1,19.851,1.6a2.794,2.794,0,0,1,1.8-.837,2.923,2.923,0,0,1,1.915.6l5.5,5.35a.29.29,0,0,0,.209.088q.145,0,.422-.269t.277-.41a.266.266,0,0,0-.09-.194L24.387.588a4.063,4.063,0,0,0-2.75-.914A3.928,3.928,0,0,0,19.026.828a4.371,4.371,0,0,0-1.3,2.737,3.25,3.25,0,0,0,1.025,2.388L25.8,12.793a2.96,2.96,0,0,0,2.132.881,2.451,2.451,0,0,0,1.778-.7,3.5,3.5,0,0,0,1.017-2.085A2.759,2.759,0,0,0,29.821,8.822Z" transform="translate(-17.728 0.326)" fill="#e580fd" stroke="#e580fd" stroke-width="0.3"/>
  </g>
</svg>
