<svg xmlns="http://www.w3.org/2000/svg" width="17.098" height="17.021" viewBox="0 0 17.098 17.021">
  <g id="call-icon1" transform="translate(0.49 0.5)">
    <path id="call" d="M15.641,13.049,13.17,10.572a1.286,1.286,0,0,0-1.817.034l-1.245,1.247a10.759,10.759,0,0,1-3.24-2.308A9.664,9.664,0,0,1,4.565,6.3L5.811,5.051A1.292,1.292,0,0,0,5.844,3.23L3.373.753A1.285,1.285,0,0,0,1.557.787,5.322,5.322,0,0,0,.05,3.552C-.276,6.263.96,8.74,4.314,12.1c4.637,4.647,8.374,4.3,8.535,4.279a7.114,7.114,0,0,0,2.759-1.511A1.3,1.3,0,0,0,15.641,13.049Z" transform="translate(0 -0.394)" fill="#f5f5f5" stroke="#c4c4c4" stroke-linecap="round" stroke-linejoin="round" stroke-width="1"/>
  </g>
</svg>
