<svg xmlns="http://www.w3.org/2000/svg" width="11.413" height="24.869" viewBox="0 0 11.413 24.869">
  <path id="i" d="M114.052,22.082l-.361,1.475q-1.624.641-2.592.976a6.836,6.836,0,0,1-2.247.336,4.487,4.487,0,0,1-3.057-.959,3.1,3.1,0,0,1-1.091-2.436,8.619,8.619,0,0,1,.081-1.172q.083-.6.264-1.353l1.353-4.789q.181-.688.3-1.3a5.667,5.667,0,0,0,.123-1.122,1.736,1.736,0,0,0-.379-1.28A2.139,2.139,0,0,0,105,10.091a3.792,3.792,0,0,0-1.076.164c-.368.109-.683.214-.947.312l.362-1.477q1.33-.541,2.544-.926a7.609,7.609,0,0,1,2.3-.386,4.377,4.377,0,0,1,3.012.944,3.132,3.132,0,0,1,1.058,2.452c0,.208-.023.575-.073,1.1a7.35,7.35,0,0,1-.271,1.444l-1.347,4.77a12.672,12.672,0,0,0-.3,1.314,6.763,6.763,0,0,0-.132,1.115,1.606,1.606,0,0,0,.424,1.3,2.4,2.4,0,0,0,1.474.344,4.256,4.256,0,0,0,1.114-.172A6.232,6.232,0,0,0,114.052,22.082Zm.342-19.065a2.791,2.791,0,0,1-.943,2.124,3.209,3.209,0,0,1-2.269.879,3.245,3.245,0,0,1-2.281-.879,2.785,2.785,0,0,1-.951-2.124A2.813,2.813,0,0,1,108.9.885a3.367,3.367,0,0,1,4.551,0A2.818,2.818,0,0,1,114.394,3.016Z" transform="translate(-102.981)" fill="#8280fd"/>
</svg>
