<svg xmlns="http://www.w3.org/2000/svg" width="24.059" height="23.005" viewBox="0 0 24.059 23.005">
  <g id="msg-icon" transform="translate(1.06 1)">
    <path id="Union_3" data-name="Union 3" d="M.622,20.21a4.745,4.745,0,0,0,2.505-3.177A10.286,10.286,0,0,1,.74,10.439,10.537,10.537,0,0,1,11.37,0,10.537,10.537,0,0,1,22,10.439,10.537,10.537,0,0,1,11.37,20.88a10.736,10.736,0,0,1-4.985-1.217A11.074,11.074,0,0,1,1.272,21C.033,21-.518,20.678.622,20.21Z" transform="translate(0 0.002)" fill="none" stroke="#fff" stroke-linejoin="round" stroke-width="2"/>
    <circle id="Ellipse_9" data-name="Ellipse 9" cx="1.5" cy="1.5" r="1.5" transform="translate(4.763 8.941)" fill="#fff"/>
    <circle id="Ellipse_12" data-name="Ellipse 12" cx="1.5" cy="1.5" r="1.5" transform="translate(9.834 8.941)" fill="#fff"/>
    <circle id="Ellipse_11" data-name="Ellipse 11" cx="1.5" cy="1.5" r="1.5" transform="translate(14.906 8.941)" fill="#fff"/>
  </g>
</svg>
