<svg id="print-yellow" xmlns="http://www.w3.org/2000/svg" width="22.001" height="23" viewBox="0 0 22.001 23">
  <g id="Icon">
    <path id="Union_6" data-name="Union 6" d="M7.19,22a3,3,0,0,1-3-3V16.637a3,3,0,0,1,.14-.91H3a3,3,0,0,1-3-3v-5.5a3,3,0,0,1,3-3H4.346a3,3,0,0,1-.156-.957V3a3,3,0,0,1,3-3H14.81a3,3,0,0,1,3,3v.273a3,3,0,0,1-.156.957H19a3,3,0,0,1,3,3v5.5a3,3,0,0,1-3,3H17.669a3,3,0,0,1,.14.91V19a3,3,0,0,1-3,3Z" transform="translate(0 1)" fill="#fff4e6"/>
    <path id="Path_46" data-name="Path 46" d="M30.53,4.714h-.595V3.4A3.414,3.414,0,0,0,26.514,0H19.333a3.414,3.414,0,0,0-3.42,3.4V4.714H15.37a3.414,3.414,0,0,0-3.42,3.4V13.6a3.414,3.414,0,0,0,3.42,3.4h.537V21.3A1.706,1.706,0,0,0,17.615,23H28.222a1.706,1.706,0,0,0,1.708-1.7V16.994h.6a3.414,3.414,0,0,0,3.42-3.4V8.113A3.414,3.414,0,0,0,30.53,4.714ZM17.2,3.4a2.123,2.123,0,0,1,2.125-2.112H26.5A2.123,2.123,0,0,1,28.63,3.4V4.714H17.2ZM28.635,21.313a.414.414,0,0,1-.413.41H17.615a.414.414,0,0,1-.413-.41V14.205H28.635Zm4.02-7.713a2.123,2.123,0,0,1-2.125,2.112h-.595V14.205h.854a.644.644,0,1,0,0-1.287H14.958a.644.644,0,1,0,0,1.287h.955v1.506H15.37A2.123,2.123,0,0,1,13.245,13.6V8.118A2.123,2.123,0,0,1,15.37,6.006H30.53a2.123,2.123,0,0,1,2.125,2.112Z" transform="translate(-11.949)" fill="#ffb959"/>
    <path id="Path_47" data-name="Path 47" d="M141.273,338.646h7.935a.623.623,0,1,0,0-1.246h-7.935a.623.623,0,1,0,0,1.246Z" transform="translate(-134.005 -321.666)" fill="#ffb959"/>
    <path id="Path_48" data-name="Path 48" d="M150.213,392.6h-7.94a.623.623,0,1,0,0,1.246h7.935a.623.623,0,0,0,0-1.246Z" transform="translate(-134.955 -374.158)" fill="#ffb959"/>
    <path id="Path_49" data-name="Path 49" d="M359.938,151.9h-1.265a.623.623,0,1,0,0,1.246h1.265a.623.623,0,1,0,0-1.246Z" transform="translate(-340.973 -144.025)" fill="#ffb959"/>
  </g>
</svg>
