<svg xmlns="http://www.w3.org/2000/svg" width="10" height="15" viewBox="0 0 10 15">
  <g id="table-up-arrow" transform="translate(10 15) rotate(180)">
    <path id="Order_icon" data-name="Order icon" d="M9.727,7.054l.508.534a.6.6,0,0,1,0,.816L5.787,13.08a.529.529,0,0,1-.776,0L.559,8.4a.6.6,0,0,1,0-.816l.508-.534a.532.532,0,0,1,.785.01l2.629,2.9V-1.173a.563.563,0,0,1,.55-.577h.733a.563.563,0,0,1,.55.577V9.963l2.629-2.9a.528.528,0,0,1,.785-.01Z" transform="translate(-0.397 1.75)" fill="#c4c4c4"/>
  </g>
</svg>
