<svg id="writing" xmlns="http://www.w3.org/2000/svg" width="20" height="22" viewBox="0 0 20 22">
  <path id="Path_461" data-name="Path 461" d="M32.577,21.2s-5.363,1.022-5.271-3.942,0-13.529,0-13.529S27.4.762,30.173.762H40.438s1.9.048,1.9,2.676V12.49s2.949-2.169,1.987,2.093c-1.768,3.225-7.227,6.618-7.227,6.618Z" transform="translate(-26.57 0)" fill="none"/>
  <path id="Path_455" data-name="Path 455" d="M116.459,201a.921.921,0,0,0-.813-1h-8.374a1.022,1.022,0,0,0,0,2h8.374A.921.921,0,0,0,116.459,201Z" transform="translate(-103.702 -191.511)" fill="#fff"/>
  <path id="Path_456" data-name="Path 456" d="M107.186,280c-.4,0-.727.448-.727,1s.325,1,.727,1h4.546c.4,0,.727-.448.727-1s-.325-1-.727-1Z" transform="translate(-103.453 -268.115)" fill="#fff"/>
  <path id="Path_457" data-name="Path 457" d="M31.431,20.273H29.762a1.662,1.662,0,0,1-1.6-1.718V3.436a1.662,1.662,0,0,1,1.6-1.718h9.811a1.662,1.662,0,0,1,1.6,1.718V6.719a.8.8,0,1,0,1.6,0V3.436A3.325,3.325,0,0,0,39.573,0H29.762A3.325,3.325,0,0,0,26.57,3.436V18.555a3.325,3.325,0,0,0,3.192,3.436h1.669a.861.861,0,0,0,0-1.718Z" transform="translate(-26.57 0)" fill="#fff"/>
  <path id="Path_458" data-name="Path 458" d="M255.514,272.975a3.208,3.208,0,0,0-4.558,0l-5.9,5.935a1.085,1.085,0,0,0-.269.452l-1.285,4.265a1.09,1.09,0,0,0,.259,1.072,1.067,1.067,0,0,0,1.056.287l4.337-1.211a1.072,1.072,0,0,0,.472-.277l5.887-5.925A3.273,3.273,0,0,0,255.514,272.975Zm-7.2,8.786-2.182.609.639-2.12,3.98-4,1.52,1.533ZM254,276.039l-.208.209-1.52-1.532.207-.209a1.069,1.069,0,0,1,1.52,0A1.091,1.091,0,0,1,254,276.039Z" transform="translate(-236.457 -263.024)" fill="#fff"/>
  <path id="Path_459" data-name="Path 459" d="M115.646,120h-8.374a1.022,1.022,0,0,0,0,2h8.374a1.022,1.022,0,0,0,0-2Z" transform="translate(-103.702 -114.906)" fill="#fff"/>
</svg>
